<?xml version="1.0" encoding="UTF-8" standalone="no"?>
<svg
   xmlns:dc="http://purl.org/dc/elements/1.1/"
   xmlns:cc="http://creativecommons.org/ns#"
   xmlns:rdf="http://www.w3.org/1999/02/22-rdf-syntax-ns#"
   xmlns:svg="http://www.w3.org/2000/svg"
   xmlns="http://www.w3.org/2000/svg"
   xmlns:sodipodi="http://sodipodi.sourceforge.net/DTD/sodipodi-0.dtd"
   xmlns:inkscape="http://www.inkscape.org/namespaces/inkscape"
   width="100.1419"
   height="28.120453"
   viewBox="0 0 100.1419 29.292138"
   version="1.1"
   preserveAspectRatio="none"
   id="svg4"
   sodipodi:docname="divider-5.svg"
   inkscape:version="1.0.2 (394de47547, 2021-03-26)"
   fill="#282b3a">
  <metadata
     id="metadata10">
    <rdf:RDF>
      <cc:Work
         rdf:about="">
        <dc:format>image/svg+xml</dc:format>
        <dc:type
           rdf:resource="http://purl.org/dc/dcmitype/StillImage" />
        <dc:title></dc:title>
      </cc:Work>
    </rdf:RDF>
  </metadata>
  <defs
     id="defs8" />
  <sodipodi:namedview
     pagecolor="#ffffff"
     bordercolor="#666666"
     borderopacity="1"
     objecttolerance="10"
     gridtolerance="10"
     guidetolerance="10"
     inkscape:pageopacity="0"
     inkscape:pageshadow="2"
     inkscape:window-width="1366"
     inkscape:window-height="731"
     id="namedview6"
     showgrid="false"
     inkscape:zoom="4.8541667"
     inkscape:cx="50.510715"
     inkscape:cy="33.178339"
     inkscape:window-x="0"
     inkscape:window-y="0"
     inkscape:window-maximized="1"
     inkscape:current-layer="svg4"
     inkscape:document-rotation="0"
     fit-margin-top="0"
     fit-margin-left="0"
     fit-margin-right="0"
     fit-margin-bottom="0" />
  <path
     style="fill:#800000;stroke-width:1.02062"
     id="path196"
     d="M 2.453281,15.625322 C 4.0698601,15.2038 5.7099882,14.904874 7.3627244,14.690758 9.1119897,14.511131 10.864839,14.356399 12.623291,14.34295 c 1.256908,0.02353 2.51278,0.07716 3.769797,0.09794 1.334203,0.01285 2.66795,0.04006 4.002014,0.05426 1.068461,-0.02869 2.14202,-0.04956 3.201915,-0.204395 0.537148,-0.07934 1.075357,-0.01146 1.612429,-0.08334 2.272384,-0.701568 4.210762,-2.32291 5.951289,-3.951138 1.012114,-0.8499072 1.636763,-1.8894596 2.262439,-3.0427118 0.435425,-0.7689732 0.636747,-1.6291797 0.922111,-2.4619112 0.161337,-0.3431869 0.201744,-0.7952422 0.439682,-1.1020834 0.113419,-0.1462636 0.282412,-0.205937 0.437715,-0.2812885 -0.804799,0.4927234 -1.609597,0.9854469 -2.414396,1.4781703 0.328879,-0.1168215 0.680881,-0.063005 1.017406,-0.01282 0.586968,0.077899 1.042867,0.409577 1.506114,0.7654546 0.717551,0.7525605 1.44884,1.4759692 2.265189,2.1124634 0.977732,0.6512316 2.027404,1.1715627 3.052335,1.7356394 0.916395,0.4547165 1.609696,1.2318962 2.317527,1.9671382 1.217278,1.281907 2.38302,2.615915 3.530201,3.965747 0.698902,0.826647 1.275458,1.749962 2.002742,2.54951 0.738558,0.837673 1.578624,1.554085 2.467811,2.20935 1.070276,0.873507 2.345188,1.314285 3.648064,1.642422 0.68852,0.133933 1.389834,0.264473 2.094069,0.223052 0.361895,-0.02128 0.649368,-0.08416 1.005405,-0.148402 2.080299,-0.42967 3.873619,-1.713098 5.591571,-2.961074 1.138103,-0.828516 2.269741,-1.662612 3.313873,-2.617719 0.954608,-0.914209 1.900784,-1.838628 2.772519,-2.839566 0.682086,-0.878123 1.39034,-1.731792 2.070479,-2.611725 0.462687,-0.562804 0.901471,-1.1190078 1.195483,-1.7956812 0.179345,-0.4919931 0.314549,-0.9989106 0.463501,-1.5013128 0.151176,-0.5851002 0.467768,-1.0938721 0.690519,-1.6478985 0.182142,-0.5501858 0.485537,-1.0195731 0.781207,-1.5044197 0.500938,-0.6757914 1.039596,-1.3253943 1.637262,-1.9104738 0.247141,-0.2523254 0.2734,-0.3052676 0.554353,-0.4969183 0.08478,-0.057835 0.352013,-0.2094105 0.264581,-0.1560254 -4.09132,2.4981129 -2.941857,1.6376511 -1.940196,1.2587422 0.392886,-0.144477 0.778808,-0.2610123 1.16657,-0.060702 0.677867,0.4646347 1.294218,1.019451 1.902342,1.5769054 0.161037,0.1543516 0.325167,0.3052731 0.483111,0.4630547 0.155409,0.1552498 0.304496,0.317224 0.456744,0.4758359 0.156558,0.1605375 0.310896,0.3234587 0.469675,0.4816123 0.490477,0.4885456 1.008983,0.9429237 1.503697,1.426823 1.020744,1.0264398 2.109585,1.9732237 3.080558,3.0518502 1.009566,1.168328 1.997992,2.355719 2.985053,3.544443 0.487997,0.563774 0.927088,1.171155 1.388722,1.758459 0.570059,0.751858 1.127821,1.513734 1.695796,2.267281 0.697123,0.831147 1.297394,1.743239 2.011761,2.558638 0.458382,0.498902 0.955174,0.950787 1.495235,1.350161 0.707484,0.501766 1.438161,0.976418 2.183598,1.415512 0.433901,0.266214 0.897574,0.443813 1.393974,0.522039 0.609812,0.06013 1.224064,0.03728 1.835767,0.03551 0,0 2.442736,-1.849646 2.442736,-1.849646 v 0 c -0.59711,0.0014 -1.19478,0.0036 -1.791443,-0.02279 -0.477613,-0.03879 -0.930349,-0.163557 -1.350709,-0.411961 C 97.704022,21.272179 96.988325,20.78234 96.302738,20.27248 95.772855,19.889178 95.294148,19.44814 94.829502,18.981522 94.087825,18.203373 93.484818,17.302906 92.81027,16.463662 92.24809,15.705157 91.698344,14.936787 91.144424,14.171737 90.687339,13.57069 90.221662,12.973235 89.708988,12.422697 88.675933,11.271835 87.684767,10.080585 86.687037,8.896604 85.72663,7.7993048 84.646438,6.8369317 83.613892,5.8150643 82.645058,4.8620389 81.638185,3.9518839 80.707343,2.9565005 80.107014,2.3728906 79.500982,1.7930081 78.839991,1.2840224 78.383418,0.95709795 78.037847,0.95282306 77.513907,1.1253354 c -1.513431,0.4918684 -2.938891,1.3712682 -4.060861,2.5360171 -0.588288,0.6248168 -1.160488,1.2781487 -1.647508,1.9920352 -0.303602,0.4859826 -0.530455,1.0062244 -0.746335,1.5402092 -0.254252,0.5533806 -0.53298,1.0937966 -0.688132,1.6902874 -0.142048,0.4901535 -0.277598,0.9855718 -0.478124,1.4539527 -0.314361,0.628192 -0.762509,1.159426 -1.183038,1.712837 -0.671301,0.871891 -1.375026,1.715615 -2.053442,2.581324 -0.882671,0.981146 -1.822825,1.903137 -2.780013,2.8049 -1.057969,0.936411 -2.193786,1.764939 -3.333733,2.588861 -1.136918,0.797942 -0.840762,0.568294 1.487155,-0.807504 0.162633,-0.09612 -0.323966,0.195493 -0.492975,0.278825 -0.293949,0.144935 -0.634953,0.259801 -0.947552,0.351523 -0.160049,0.04696 -0.322339,0.0852 -0.483509,0.127805 -0.161736,0.03295 -0.800087,0.167134 -0.969589,0.185463 -0.69401,0.07505 -1.393385,-0.02729 -2.076388,-0.144754 -1.280804,-0.283825 -2.541619,-0.685279 -3.590378,-1.537174 -0.873951,-0.640432 -1.672496,-1.364107 -2.400041,-2.180673 -0.726275,-0.799148 -1.349627,-1.6894 -2.064946,-2.4997 C 47.843262,12.45865 46.679981,11.118943 45.484281,9.8112208 44.778817,9.0420518 44.11007,8.1835596 43.165912,7.7240727 42.13092,7.2026654 41.084546,6.6955719 40.112121,6.053455 39.295761,5.4217748 38.577446,4.6906974 37.882141,3.9200666 37.408264,3.5383398 36.949213,3.1266259 36.337946,3.0202504 35.978256,2.9071826 35.587914,2.8935196 35.213977,2.8946591 34.27253,3.4367812 33.322372,3.9628044 32.389635,4.5210252 c -0.49887,0.2985623 -0.549123,1.065426 -0.756534,1.5530007 -0.269964,0.8306349 -0.543225,1.655855 -0.962257,2.4211981 -0.587805,1.1143302 -1.254192,2.09868 -2.217592,2.909561 -0.589504,0.538054 -0.747984,0.701966 -1.379693,1.199209 -0.229615,0.180739 -0.96216,0.652108 -0.702434,0.522959 3.851047,-1.91493 2.128438,-1.253683 1.262832,-0.819341 -0.538231,0.118085 -1.070137,0.06069 -1.6172,0.08868 -1.067394,0.207325 -2.154543,0.255927 -3.237994,0.299616 -1.327544,-0.0206 -2.654327,-0.07631 -3.982611,-0.06678 -1.264536,-0.02676 -2.528488,-0.07925 -3.793269,-0.09137 -1.765855,0.02787 -3.527755,0.164093 -5.2865428,0.325911 -1.6253807,0.202276 -3.2354852,0.504397 -4.8377065,0.852554 0,0 -2.4253527,1.909108 -2.4253527,1.909108 z" />
  <path
     style="fill:#008000;stroke-width:1.02062"
     id="path198"
     d="m 0,8.0877417 c 0.97541371,0.5475919 1.6825228,1.4491559 2.3747882,2.3248593 1.3718016,1.729522 2.408412,3.7072 3.4206429,5.677311 0.7972486,1.677491 1.5330477,3.385896 2.4353536,5.006182 0.2849298,0.515974 0.6777549,0.874727 1.1984881,1.100557 0.4915018,0.19864 0.9625372,0.448294 1.4158132,0.727626 1.428484,0.95216 2.932222,1.769968 4.433135,2.589559 0.765838,0.313838 1.797453,1.111802 2.63242,1.202254 0.445797,0.04829 0.580288,-0.06902 0.993197,-0.236142 1.01244,-0.645125 2.062068,-1.230824 3.03732,-1.935377 0.175288,-0.126632 0.800483,-1.136442 0.881999,-1.277003 0.454104,-0.783022 0.860354,-1.605589 1.275021,-2.41176 0.70226,-1.374074 1.504159,-2.688294 2.175148,-4.079902 0.645878,-1.397069 0.900291,-2.936516 1.112672,-4.458126 0.141858,-1.052943 0.193183,-2.114318 0.219461,-3.1760567 0.03333,-0.659153 -0.0098,-1.3108867 -0.09203,-1.9636184 -0.06054,-0.3737146 -0.0338,-0.7462928 -0.06067,-1.1230838 -0.02401,-0.3263125 -0.02843,-0.6536571 -0.03259,-0.9807484 0.195861,-0.417642 0.540127,-0.7160497 0.85661,-1.034865 0.797758,-0.7686532 1.529898,-1.6112448 2.381337,-2.3158217 0.38867,-0.3114139 0.57404,-0.469142 0.977945,-0.75645756 C 31.78661,0.86003622 32.253096,0.56267523 32.09517,0.65754153 26.564715,4.0651667 29.517788,1.9973409 30.223959,1.907053 c 0.110856,-0.014174 0.223176,0.00986 0.334765,0.014786 0.868734,0.2950758 1.468603,1.0477682 2.07278,1.7212114 0.83764,0.9576916 1.713693,1.8738604 2.607159,2.7748386 1.383007,1.4046826 2.849747,2.7124418 4.234608,4.115462 1.239437,1.287325 2.426106,2.627505 3.639584,3.940961 0.776032,0.86456 1.586388,1.711338 2.196903,2.717906 0.362761,0.59809 0.403707,0.770563 0.664058,1.412175 0.446064,1.291312 0.519161,2.668111 0.626944,4.023294 0.09695,1.438522 0.114632,2.881192 0.112611,4.322734 0.01348,0.635142 -0.114613,1.208022 0.152556,1.796858 0.147206,0.231523 0.417245,0.600028 0.735955,0.537908 0.142988,-0.02787 0.272584,-0.105942 0.408876,-0.158913 1.181821,-0.6775 2.43294,-1.205869 3.644499,-1.81968 0.986609,-0.499844 1.129384,-0.599291 2.067303,-1.142214 1.925735,-1.078757 3.800146,-2.16684 5.24801,-3.880263 0.294467,-0.348478 0.553685,-0.73644 0.815381,-1.111447 0.578905,-0.916916 0.877627,-1.972045 1.16318,-3.017357 0.440696,-1.60472 0.876485,-3.205914 1.178726,-4.846036 0.220371,-1.297941 0.265982,-2.61587 0.284669,-3.930602 -0.04979,-1.6944621 -0.0039,-3.3861521 0.07983,-5.0782706 0.07982,-0.5947823 0.05255,-1.3279125 0.461203,-1.8122358 0.130345,-0.154482 0.295822,-0.2724781 0.443656,-0.408808 0.905166,-0.6044046 2.323626,-1.47778577 -2.008333,1.2040411 -0.04439,0.027483 0.09286,-0.052397 0.144074,-0.059338 0.201201,-0.027267 0.284099,0.075334 0.462941,0.1802624 0.123084,0.099019 0.24946,0.1937503 0.369253,0.2970569 0.573679,0.4947285 1.112193,1.0289508 1.693281,1.5156476 0.850061,0.7119795 1.014816,0.8204844 1.923387,1.5139189 1.872347,1.3481522 3.577347,2.9393765 4.903181,4.8780175 0.410064,0.599596 0.782758,1.225994 1.174137,1.838991 1.925222,3.390176 3.533031,6.965709 5.054095,10.568345 0.291649,0.555012 0.695434,2.382977 1.316992,2.647991 0.107841,0.04598 0.230363,0.03677 0.345545,0.05515 1.505236,-0.468953 2.754719,-1.553803 4.087,-2.400571 0.263349,-0.167379 1.062833,-0.652733 0.792362,-0.498168 -0.638343,0.364792 -6.718518,4.099562 2.023204,-1.253431 1.213885,-0.826207 2.361432,-1.771665 3.348775,-2.881464 0.489426,-0.550129 0.684678,-0.829606 1.126663,-1.411248 1.002268,-1.273375 1.634482,-2.779459 2.211311,-4.296884 0.537161,-1.530797 1.049782,-3.07085 1.569475,-4.6081611 0.242333,-0.8555386 0.71663,-1.5828502 1.16872,-2.3256965 C 95.600424,6.2510082 96.281539,5.61471 96.929099,4.9593791 97.59857,4.3166306 98.177412,3.5809739 98.815572,2.9070918 99.211368,2.4855036 99.65651,2.1190031 100.1419,1.8167926 c 0,0 -2.823856,1.1463528 -2.823856,1.1463528 v 0 c -0.467614,0.3407158 -0.907645,0.7213056 -1.296266,1.1581761 -0.605293,0.6894258 -1.200042,1.3906999 -1.858468,2.026825 -0.661295,0.6713619 -1.337935,1.3389843 -1.82652,2.16417 -0.454775,0.7445626 -0.858888,1.5109351 -1.088521,2.3684225 -0.491609,1.535304 -0.999735,3.06541 -1.548339,4.579728 -0.589958,1.490757 -1.245397,2.961779 -2.240653,4.213378 -0.441247,0.569203 -0.630958,0.837078 -1.12072,1.372544 -0.986515,1.078576 -2.123492,1.998691 -3.329275,2.795498 0.470882,-0.273458 1.877151,-1.105423 1.412646,-0.820375 -1.154776,0.708638 -2.324623,1.390307 -3.483696,2.091293 -0.278268,0.168291 -0.553069,0.342742 -0.828234,0.516483 -0.213598,0.134867 -0.858104,0.532364 -0.638026,0.409321 0.70236,-0.392681 1.386934,-0.819046 2.085669,-1.218681 0.117224,-0.06704 -0.227138,0.147109 -0.340706,0.220664 -0.07864,0.03461 -0.150581,0.10125 -0.235916,0.103844 -0.33629,0.01021 -0.563882,-0.614142 -0.664012,-0.822548 C 80.208084,23.895181 79.657816,22.676142 79.60069,22.550031 77.919517,19.016282 76.225557,15.485043 74.383144,12.039083 74.021842,11.396638 73.690634,10.734771 73.299238,10.111749 72.037551,8.1034016 70.242983,6.529144 68.391503,5.142317 67.041348,4.0754758 65.762232,2.9316882 64.542749,1.7062321 64.407273,1.5980352 64.159804,1.3755806 63.979859,1.3142982 c -0.06289,-0.02142 -0.13984,-0.038528 -0.198417,-0.00647 -1.052496,0.5760932 -2.262874,1.1251879 -3.190747,1.9743929 -0.159502,0.1705225 -0.285119,0.284777 -0.401818,0.4961597 -0.313491,0.5678395 -0.267397,1.2779256 -0.326972,1.9032998 -0.05666,1.7003781 -0.09008,3.4003495 -0.106609,5.1016244 -0.02235,1.293802 -0.06413,2.591377 -0.279402,3.868991 -0.293842,1.6387 -0.738082,3.234352 -1.212254,4.825541 -0.316201,1.011504 -0.618431,2.041645 -1.208181,2.924366 -0.588181,0.830096 -1.224083,1.569499 -1.993743,2.22571 -0.226838,0.193401 -0.974328,0.661363 -0.699489,0.55518 0.568118,-0.219493 1.065415,-0.601579 1.598122,-0.902367 -0.902813,0.537573 -1.118812,0.684707 -2.067659,1.171852 -1.163905,0.597558 -2.384813,1.06728 -3.522965,1.719845 -0.402799,0.242452 -0.530949,0.495444 -0.840969,0.0017 -0.23682,-0.505588 -0.09876,-1.097613 -0.154205,-1.640223 -0.0352,-1.441687 -0.07396,-2.883491 -0.151653,-4.323515 -0.08852,-1.392534 -0.188112,-2.79546 -0.678823,-4.110237 C 48.267909,16.44335 48.215349,16.250908 47.840072,15.637196 47.217719,14.619427 46.385446,13.775251 45.610716,12.888005 44.402874,11.561316 43.199027,10.230799 41.950637,8.9450937 40.554842,7.5614003 39.106313,6.2363337 37.744229,4.8161182 36.873523,3.9036749 36.018067,2.979017 35.200238,2.0149751 34.55,1.2964784 33.905186,0.53656753 33.029562,0.11140243 c -0.130801,-0.034018 -0.258038,-0.090577 -0.392403,-0.1020521 -0.126396,-0.010795 -0.266108,-0.024271 -0.378872,0.03618 -1.004524,0.5385114 -1.970302,1.15231347 -2.945705,1.74607947 -0.506125,0.3080981 -0.945857,0.7292745 -1.414832,1.090898 -0.836813,0.7458413 -1.599669,1.5755849 -2.407564,2.3550389 -0.359033,0.3679059 -0.755257,0.729644 -0.79188,1.2858084 0.0037,0.3342489 0.0091,0.6687707 0.03418,1.0021646 0.02717,0.3772464 0.01768,0.7568569 0.08893,1.1299032 0.0874,0.6348369 0.114543,1.2686678 0.09029,1.9103031 -0.0064,1.038979 -0.04817,2.078589 -0.177865,3.109759 -0.209911,1.499926 -0.488913,3.008133 -1.158979,4.369128 -0.684659,1.370497 -1.454372,2.691602 -2.14507,4.058764 -0.539127,1.03976 -1.052014,2.148555 -1.776474,3.066291 -0.146377,0.185429 -0.690017,0.609087 -0.474619,0.523708 0.72978,-0.289272 1.376065,-0.769165 2.064098,-1.153747 -0.263168,0.156231 -0.550207,0.3753 -0.871852,0.393581 -0.758073,0.04308 -1.993168,-0.797415 -2.67789,-1.068591 C 16.210668,23.066578 14.741748,22.241917 13.390917,21.21587 12.941125,20.90554 12.461313,20.650107 11.966063,20.427736 11.451543,20.217681 11.140932,20.038931 10.818397,19.528882 9.831582,17.970528 9.0667935,16.281989 8.2661312,14.615258 7.2488986,12.629402 6.2584189,10.602331 4.9081599,8.8340023 4.2149953,7.9194528 3.5022705,7.0043498 2.5593805,6.3538853 2.5593805,6.3538853 0,8.0877417 0,8.0877417 Z" />
</svg>
